<?xml version="1.0" encoding="UTF-8" standalone="no"?>
<svg
   xmlns:dc="http://purl.org/dc/elements/1.1/"
   xmlns:cc="http://creativecommons.org/ns#"
   xmlns:rdf="http://www.w3.org/1999/02/22-rdf-syntax-ns#"
   xmlns:svg="http://www.w3.org/2000/svg"
   xmlns="http://www.w3.org/2000/svg"
   id="Ebene_2"
   data-name="Ebene 2"
   viewBox="0 0 240 122"
   version="1.1"
   width="240"
   height="122">
  <metadata
     id="metadata408">
    <rdf:RDF>
      <cc:Work
         rdf:about="">
        <dc:format>image/svg+xml</dc:format>
        <dc:type
           rdf:resource="http://purl.org/dc/dcmitype/StillImage" />
        <dc:title></dc:title>
      </cc:Work>
    </rdf:RDF>
  </metadata>
  <defs
     id="defs221">
    <style
       id="style219">.cls-1{fill:none;}.cls-2{fill:#0091d8;}.cls-3{fill:#ffd800;}.cls-4{fill:#fff;}</style>
  </defs>
  <g
     id="g3617">
    <path
       class="cls-1"
       d="m 104.73078,12.568329 h -7.236108 a 1.3410555,1.3460607 0 0 0 -1.508688,1.486276 c 0,1.065631 0,2.10322 0,3.140809 a 1.3969329,1.4021467 0 0 0 1.536626,1.598446 q 3.60409,0 7.20817,0 a 1.3969329,1.4021467 0 0 0 1.48075,-1.514318 v -3.281024 a 1.3689942,1.3741037 0 0 0 -1.48075,-1.430189 z"
       id="path223"
       style="stroke-width:2.79908" />
    <path
       class="cls-1"
       d="m 104.73078,22.916171 h -7.291985 a 1.3410555,1.3460607 0 0 0 -1.452811,1.458233 c 0,1.093674 0,2.159306 0,3.25298 a 1.4248715,1.4301895 0 0 0 1.508688,1.542361 h 7.180228 a 1.4248715,1.4301895 0 0 0 1.53663,-1.570404 v -3.196893 a 1.3689942,1.3741037 0 0 0 -1.48075,-1.486277 z"
       id="path225"
       style="stroke-width:2.79908" />
    <path
       class="cls-1"
       d="m 134.65309,18.737774 q 3.74378,0 7.45962,0 a 1.3689942,1.3741037 0 0 0 1.39694,-1.458232 V 13.91439 a 1.2851782,1.2899749 0 0 0 -1.39694,-1.402146 h -3.65996 c -1.25725,0 -2.51449,0 -3.77173,0 a 1.3131169,1.3180178 0 0 0 -1.36899,1.289974 v 3.589496 a 1.3410555,1.3460607 0 0 0 1.34106,1.34606 z"
       id="path227"
       style="stroke-width:2.79908" />
    <path
       class="cls-1"
       d="m 142.08477,43.752071 h -7.37581 a 1.3689942,1.3741037 0 0 0 -1.39693,1.374104 v 3.505366 a 1.3410555,1.3460607 0 0 0 1.39693,1.374105 h 7.37581 a 1.3689942,1.3741037 0 0 0 1.42488,-1.458233 v -3.33711 a 1.3410555,1.3460607 0 0 0 -1.42488,-1.458232 z"
       id="path229"
       style="stroke-width:2.79908" />
    <path
       class="cls-1"
       d="m 96.600635,54.941201 h 46.322295 c 0.53084,0 0.64259,-0.252385 0.58672,-0.841288 H 96.013922 c -0.05588,0.532815 0.08382,0.75716 0.586713,0.841288 z"
       id="path231"
       style="stroke-width:2.79908" />
    <path
       class="cls-1"
       d="m 97.494672,50.033688 h 7.236108 a 1.4248715,1.4301895 0 0 0 1.48075,-1.486275 c 0,-1.121717 0,-2.243435 0,-3.393196 a 1.3689942,1.3741037 0 0 0 -1.45281,-1.402146 h -7.319925 a 1.3689942,1.3741037 0 0 0 -1.452811,1.486275 c 0,1.065632 0,2.131263 0,3.224938 a 1.4528102,1.4582325 0 0 0 1.508688,1.570404 z"
       id="path233"
       style="stroke-width:2.79908" />
    <path
       class="cls-1"
       d="m 128.31101,22.916171 h -17.09846 a 1.229301,1.2338891 0 0 0 -1.39693,1.374103 v 3.393196 a 1.3410555,1.3460607 0 0 0 1.48075,1.486275 h 17.07052 a 1.3689942,1.3741037 0 0 0 1.50868,-1.514319 v -3.252978 c -0.0838,-1.03759 -0.53083,-1.486277 -1.56456,-1.486277 z"
       id="path235"
       style="stroke-width:2.79908" />
    <path
       class="cls-1"
       d="m 97.438795,39.573674 h 7.291985 a 1.3689942,1.3741037 0 0 0 1.48075,-1.514318 v -3.224938 a 1.3689942,1.3741037 0 0 0 -1.45281,-1.486275 h -7.375804 a 1.3131169,1.3180178 0 0 0 -1.396932,1.458233 q 0,1.654532 0,3.281023 a 1.3969329,1.4021467 0 0 0 1.452811,1.486275 z"
       id="path237"
       style="stroke-width:2.79908" />
    <path
       class="cls-1"
       d="m 142.14065,22.916171 h -7.37581 a 1.3689942,1.3741037 0 0 0 -1.45281,1.430191 v 3.281022 a 1.4248715,1.4301895 0 0 0 1.53663,1.542361 h 7.23611 a 1.3969329,1.4021467 0 0 0 1.45281,-1.430189 q 0,-1.738662 0,-3.449282 a 1.3131169,1.3180178 0 0 0 -1.39693,-1.374103 z"
       id="path239"
       style="stroke-width:2.79908" />
    <path
       class="cls-1"
       d="m 111.21255,50.033688 h 17.04258 a 1.3689942,1.3741037 0 0 0 1.53663,-1.542361 v -3.309066 a 1.2572397,1.2619321 0 0 0 -1.45281,-1.43019 h -17.1264 a 1.229301,1.2338891 0 0 0 -1.36899,1.318017 v 3.477325 a 1.3410555,1.3460607 0 0 0 1.36899,1.486275 z"
       id="path241"
       style="stroke-width:2.79908" />
    <path
       class="cls-1"
       d="m 128.33895,12.568329 h -17.1264 c -0.97785,0 -1.42487,0.420644 -1.42487,1.430189 v 3.224938 a 1.3131169,1.3180178 0 0 0 1.42487,1.514318 h 17.04258 a 1.3410555,1.3460607 0 0 0 1.53663,-1.54236 v -3.224939 c 0,-1.037588 -0.44702,-1.402146 -1.45281,-1.402146 z"
       id="path243"
       style="stroke-width:2.79908" />
    <path
       class="cls-1"
       d="m 111.21255,39.573674 h 17.04258 c 1.06167,0 1.53663,-0.504772 1.53663,-1.570404 v -3.000593 c 0,-1.205847 -0.41908,-1.626491 -1.64838,-1.626491 h -17.15434 a 1.1734237,1.1778033 0 0 0 -1.25724,1.261932 v 3.589495 a 1.2851782,1.2899749 0 0 0 1.48075,1.346061 z"
       id="path245"
       style="stroke-width:2.79908" />
    <path
       class="cls-1"
       d="m 142.2524,33.348143 h -7.62726 a 1.2572397,1.2619321 0 0 0 -1.28517,1.318018 c 0,1.177802 0,2.383649 0,3.589495 a 1.3131169,1.3180178 0 0 0 1.39694,1.318018 h 7.40374 a 1.3689942,1.3741037 0 0 0 1.39693,-1.318018 q 0,-1.794748 0,-3.617538 a 1.2851782,1.2899749 0 0 0 -1.28518,-1.289975 z"
       id="path247"
       style="stroke-width:2.79908" />
    <path
       class="cls-2"
       d="m 180.5061,29.142844 h -0.22351 v 2.215392 h 5.58772 a 14.248689,14.301895 0 0 0 -1.92777,-1.261932 9.4153108,9.4504685 0 0 0 -3.43644,-0.95346 z"
       id="path249"
       style="stroke-width:2.79908" />
    <path
       class="cls-2"
       d="m 151.94712,29.141703 h -3.6879 a 1.1175463,1.1217173 0 0 1 -1.17343,-1.233889 c 0,-1.233889 0,-2.495822 0,-3.757754 a 1.145485,1.1497603 0 0 1 1.2293,-1.233889 h 3.63203 v -4.178397 h -3.63203 a 1.1734237,1.1778033 0 0 1 -1.2293,-1.34606 c 0,-1.177803 0,-2.38365 0,-3.561453 a 1.1734237,1.1778033 0 0 1 1.28518,-1.261932 h 3.57615 V 8.4740605 h -4.88927 V 6.7914849 H 92.409836 v 1.7106195 h -4.833389 v 4.0662246 h 3.659965 a 1.145485,1.1497603 0 0 1 1.201363,1.261932 v 3.617538 a 1.1175463,1.1217173 0 0 1 -1.201363,1.261932 h -3.659965 v 4.20644 h 3.687904 a 1.1734237,1.1778033 0 0 1 1.173424,1.233889 v 3.785796 a 1.145485,1.1497603 0 0 1 -1.089609,1.205847 h -3.771719 v 2.215392 H 151.83537 Z M 133.31203,13.802218 a 1.3131169,1.3180178 0 0 1 1.36899,-1.233889 c 1.25724,0 2.51448,0 3.77173,0 h 3.65996 a 1.2851782,1.2899749 0 0 1 1.39694,1.402146 v 3.365152 a 1.3689942,1.3741037 0 0 1 -1.39694,1.458233 q -3.74379,0 -7.45962,0 a 1.3410555,1.3460607 0 0 1 -1.34106,-1.346061 z m -27.1005,13.797123 a 1.4248715,1.4301895 0 0 1 -1.53663,1.570404 h -7.180228 a 1.4248715,1.4301895 0 0 1 -1.508688,-1.542361 c 0,-1.093674 0,-2.159306 0,-3.25298 a 1.3410555,1.3460607 0 0 1 1.452811,-1.458233 h 7.291985 a 1.3689942,1.3741037 0 0 1 1.48075,1.486277 z m 0,-10.375885 a 1.3969329,1.4021467 0 0 1 -1.48075,1.514318 q -3.60408,0 -7.20817,0 a 1.3969329,1.4021467 0 0 1 -1.536626,-1.598447 c 0,-1.037589 0,-2.075177 0,-3.140809 a 1.3410555,1.3460607 0 0 1 1.508688,-1.430189 h 7.236108 a 1.3689942,1.3741037 0 0 1 1.48075,1.486276 z m 23.58023,10.43197 a 1.3689942,1.3741037 0 0 1 -1.50869,1.514319 H 111.21255 A 1.3410555,1.3460607 0 0 1 109.7318,27.68347 v -3.393196 a 1.229301,1.2338891 0 0 1 1.39693,-1.374103 h 17.18228 c 1.03373,0 1.48075,0.448687 1.48075,1.486277 z m 0,-10.460012 a 1.3410555,1.3460607 0 0 1 -1.53663,1.54236 h -17.04258 a 1.3131169,1.3180178 0 0 1 -1.50868,-1.514318 v -3.281023 c 0,-1.009546 0.44702,-1.430189 1.42486,-1.430189 h 17.18228 c 1.00579,0 1.45281,0.420643 1.45281,1.458231 z m 13.74582,10.544142 a 1.3969329,1.4021467 0 0 1 -1.45281,1.430189 h -7.23611 a 1.4248715,1.4301895 0 0 1 -1.53663,-1.542361 v -3.281022 a 1.3689942,1.3741037 0 0 1 1.45281,-1.430191 h 7.37581 a 1.3131169,1.3180178 0 0 1 1.39693,1.374103 q 0.028,1.738664 0,3.449282 z"
       id="path251"
       style="stroke-width:2.79908" />
    <path
       class="cls-2"
       d="m 155.9144,21.233595 a 13.103231,13.152136 0 0 0 0.83817,4.655127 11.706297,11.749988 0 0 0 2.34684,3.869925 11.175463,11.217173 0 0 0 1.84396,1.598448 h 5.2804 v -2.159306 h -0.16764 a 7.0405418,7.0668192 0 0 1 -3.93934,-2.327564 v 0 l -0.1397,-0.280429 a 9.1080025,9.1419963 0 0 1 -1.45281,-5.272072 v -8.749395 h 28.91651 V 8.4740605 H 155.9144 Z"
       id="path253"
       style="stroke-width:2.79908" />
    <path
       class="cls-2"
       d="m 147.14166,3.790891 a 1.8160128,1.8227907 0 1 0 -1.81601,1.7667049 1.7601354,1.7667047 0 0 0 1.81601,-1.7667049 z"
       id="path255"
       style="stroke-width:2.79908" />
    <rect
       class="cls-2"
       x="168.23535"
       y="18.737776"
       width="21.037809"
       height="4.0942683"
       id="rect257"
       style="stroke-width:2.79908" />
    <path
       class="cls-2"
       d="M 121.96894,0.50986783 A 5.0848357,5.1038138 0 0 0 119.17507,0.03313798 7.4875604,7.5155062 0 0 0 114.00642,3.005689 6.8729098,6.8985615 0 0 0 112.66536,5.4454242 H 126.6347 A 4.7775105,4.7953416 0 0 0 126.43912,4.9406513 9.1638798,9.1980821 0 0 0 121.96894,0.50986783 Z"
       id="path259"
       style="stroke-width:2.79908" />
    <path
       class="cls-2"
       d="M 95.985984,3.790891 A 1.7880741,1.7947477 0 1 0 94.225848,5.5575959 1.7042581,1.7106189 0 0 0 95.985984,3.790891 Z"
       id="path261"
       style="stroke-width:2.79908" />
    <rect
       class="cls-2"
       x="50.725357"
       y="18.68169"
       width="20.981932"
       height="4.20644"
       id="rect263"
       style="stroke-width:2.79908" />
    <path
       class="cls-2"
       d="m 133.33997,3.818934 a 1.7880741,1.7947477 0 1 0 -1.81602,1.7386619 1.7321968,1.7386619 0 0 0 1.81602,-1.7386619 z"
       id="path265"
       style="stroke-width:2.79908" />
    <path
       class="cls-2"
       d="m 59.749544,29.141703 h -0.251448 a 9.4153277,9.4504685 0 0 0 -3.492332,0.953459 l -0.642589,0.392601 v 0 a 11.594543,11.637817 0 0 0 -1.201362,0.841289 h 5.587731 z"
       id="path267"
       style="stroke-width:2.79908" />
    <path
       class="cls-2"
       d="m 77.350899,14.839807 a 8.7168613,8.7493952 0 0 1 2.067461,5.973144 v 0.392601 a 9.1918185,9.2261251 0 0 1 -1.45281,5.384244 6.8449712,6.8705187 0 0 1 -4.190799,2.636036 h -0.167632 v 2.159305 h 5.308345 a 12.376825,12.423019 0 0 0 1.816012,-1.62649 11.706297,11.749988 0 0 0 2.346848,-3.869925 12.991475,13.039963 0 0 0 0.83816,-4.655127 V 20.672737 A 13.717881,13.76908 0 0 0 83.022447,15.653052 11.957746,12.002376 0 0 0 80.675599,11.81117 10.644629,10.684358 0 0 0 77.239144,9.3433913 10.141733,10.179585 0 0 0 73.076284,8.4460176 H 50.725358 v 4.1223114 h 20.506975 a 7.7669469,7.7959355 0 0 1 6.118566,2.271478 z"
       id="path269"
       style="stroke-width:2.79908" />
    <path
       class="cls-2"
       d="m 109.78768,3.7628481 a 1.7880741,1.7947477 0 1 0 -1.78807,1.7947478 1.7321968,1.7386619 0 0 0 1.78807,-1.7947478 z"
       id="path271"
       style="stroke-width:2.79908" />
    <path
       class="cls-3"
       d="m 148.20074,33.347936 h 3.63203 V 31.356887 H 87.573848 v 1.991049 h 3.71584 a 1.145485,1.1497603 0 0 1 1.145486,1.233889 v 3.757753 a 1.1175463,1.1217173 0 0 1 -1.201363,1.205845 h -3.771719 v 4.206441 h 3.576149 a 1.2013623,1.2058461 0 0 1 1.285178,1.289974 v 3.53341 a 1.2572397,1.2619321 0 0 1 -1.396932,1.458233 h -3.464395 v 4.066225 h 4.861327 V 56.904 h 54.648011 v -2.804294 h 4.86134 v -4.094268 h -3.74378 a 1.1175463,1.1217173 0 0 1 -1.11756,-1.261932 c 0,-1.233889 0,-2.439735 0,-3.645582 0,-1.205846 0.47497,-1.289975 1.34107,-1.318017 h 3.52027 v -4.20644 h -3.63203 a 1.1734237,1.1778033 0 0 1 -1.22931,-1.289976 c 0,-1.205846 0,-2.439735 0,-3.673623 a 1.145485,1.1497603 0 0 1 1.22931,-1.261932 z m -38.58329,1.261932 a 1.1734237,1.1778033 0 0 1 1.25724,-1.261932 h 17.15434 c 1.2293,0 1.64838,0.420644 1.64838,1.62649 v 3.05668 c 0,1.065631 -0.47496,1.570403 -1.53663,1.570403 H 111.0982 a 1.2851782,1.2899749 0 0 1 -1.42487,-1.374103 z m 0,10.460014 a 1.229301,1.2338891 0 0 1 1.369,-1.318018 h 17.23815 a 1.2572397,1.2619321 0 0 1 1.45281,1.430189 v 3.309066 a 1.3689942,1.3741037 0 0 1 -1.53663,1.542362 H 111.0982 a 1.3410555,1.3460607 0 0 1 -1.50868,-1.486276 z M 95.871629,34.806168 a 1.3131169,1.3180178 0 0 1 1.396932,-1.458232 h 7.375809 a 1.3689942,1.3741037 0 0 1 1.45281,1.486275 v 3.224938 a 1.3689942,1.3741037 0 0 1 -1.48075,1.514318 h -7.291991 a 1.3969329,1.4021467 0 0 1 -1.45281,-1.486276 q -0.05588,-1.62649 0,-3.281023 z m 0,10.43197 a 1.3689942,1.3741037 0 0 1 1.45281,-1.486274 h 7.319931 a 1.3689942,1.3741037 0 0 1 1.45281,1.402147 c 0,1.14976 0,2.271478 0,3.393194 a 1.4248715,1.4301895 0 0 1 -1.48075,1.486276 h -7.236113 a 1.4528102,1.4582325 0 0 1 -1.508688,-1.570405 c -0.02794,-1.093675 -0.02794,-2.243434 0,-3.224938 z m 46.936951,9.702856 h -46.3223 c -0.502897,0 -0.64259,-0.224343 -0.586713,-0.841288 h 47.495723 c 0.0558,0.532816 -0.0558,0.75716 -0.58671,0.841288 z m 0.58671,-6.393789 a 1.3689942,1.3741037 0 0 1 -1.42487,1.458233 h -7.37581 a 1.3410555,1.3460607 0 0 1 -1.39693,-1.374104 v -3.505367 a 1.3689942,1.3741037 0 0 1 1.39693,-1.374103 h 7.37581 a 1.3410555,1.3460607 0 0 1 1.42487,1.458232 z m 0,-10.291756 a 1.3689942,1.3741037 0 0 1 -1.39694,1.318018 h -7.37579 a 1.3131169,1.3180178 0 0 1 -1.39694,-1.318018 c 0,-1.205847 0,-2.411693 0,-3.589495 a 1.2572397,1.2619321 0 0 1 1.28517,-1.318018 h 7.62726 a 1.2851782,1.2899749 0 0 1 1.28518,1.289974 q 0.028,1.822791 0,3.617539 z"
       id="path273"
       style="stroke-width:2.79908" />
    <rect
       class="cls-3"
       x="61.621429"
       y="39.629761"
       width="21.90391"
       height="4.0942683"
       id="rect275"
       style="stroke-width:2.79908" />
    <path
       class="cls-3"
       d="M 83.632004,49.977259 H 53.989132 v -8.777438 a 9.163866,9.1980821 0 0 1 1.42487,-5.272072 l 0.195571,-0.252386 v 0 A 6.7332064,6.758347 0 0 1 59.548917,33.3478 h 0.19557 v -2.019092 h -5.587722 a 11.706279,11.749988 0 0 0 -1.508686,1.374104 12.404745,12.451062 0 0 0 -2.346843,3.869925 12.851763,12.899749 0 0 0 -0.838159,4.627084 v 12.787578 h 34.168927 z"
       id="path277"
       style="stroke-width:2.79908" />
    <path
       class="cls-3"
       d="m 180.24898,33.264014 h 0.16763 a 6.8449712,6.8705187 0 0 1 4.1908,2.636036 8.9683093,9.0017817 0 0 1 1.45281,5.272071 v 0.420644 a 8.7168613,8.7493952 0 0 1 -2.06746,5.973145 7.7669469,7.7959355 0 0 1 -6.14651,2.383648 H 156.0541 v 4.038184 h 23.66404 a 10.141733,10.179585 0 0 0 4.13492,-0.841288 10.644629,10.684358 0 0 0 3.43645,-2.467778 11.957746,12.002376 0 0 0 2.34686,-3.841882 13.717881,13.76908 0 0 0 0.89403,-5.019685 v -0.588902 a 12.963537,13.011921 0 0 0 -0.83816,-4.627085 11.706297,11.749988 0 0 0 -2.34685,-3.869924 11.45485,11.497603 0 0 0 -1.48074,-1.374103 h -5.58774 z"
       id="path279"
       style="stroke-width:2.79908" />
    <rect
       class="cls-3"
       x="156.05409"
       y="39.573669"
       width="22.211233"
       height="4.20644"
       id="rect281"
       style="stroke-width:2.79908" />
    <path
       class="cls-3"
       d="m 73.607119,33.342034 h 0.223509 a 8.9403706,8.9737387 0 0 0 3.492332,-0.981504 11.594543,11.637817 0 0 0 1.592504,-0.981503 h -5.308345 z"
       id="path283"
       style="stroke-width:2.79908" />
    <path
       class="cls-3"
       d="m 161.81648,31.98204 v 0 l 0.64908,0.368221 a 9.0023537,9.035537 0 0 0 3.52756,0.963035 h 0.22575 V 31.3589 h -5.27723 z"
       id="path285"
       style="stroke-width:2.82725" />
  </g>
  <g
     id="g3930">
    <path
       class="st1"
       d="m 10.9507,83.787527 c -2.86888,0 -3.96189,-1.502751 -3.96189,-3.961886 v -8.606766 c 0,-0.273239 0.13662,-0.409851 0.40986,-0.409851 h 0.68307 c 0.27324,0 0.40985,0.136612 0.40985,0.409851 v 8.333651 c 0,1.912629 0.54647,3.005502 2.45914,3.005502 1.36616,0 2.45913,-0.409851 2.45913,-2.732387 v -8.470277 c 0,-0.273239 0.13661,-0.409851 0.40985,-0.409851 h 0.68308 c 0.27324,0 0.40985,0.136612 0.40985,0.409851 v 8.606766 c 0,2.322509 -1.36617,3.82526 -3.96188,3.82526 z"
       id="path2"
       style="fill:#ffffff;stroke-width:1.36617" />
    <path
       class="st1"
       d="m 26.79811,83.650627 h -1.36617 c -0.13661,0 -0.40985,-0.136613 -0.40985,-0.273239 l -4.09851,-9.153271 c -0.40985,-0.819702 -0.68308,-1.639377 -0.8197,-2.459134 0,0.819702 0.13661,2.049256 0.13661,2.595761 v 8.880018 c 0,0.136613 -0.13661,0.409851 -0.40985,0.409851 h -0.68308 c -0.27324,0 -0.40985,-0.136612 -0.40985,-0.409851 v -12.15891 c 0,-0.273239 0.13661,-0.409852 0.40985,-0.409852 h 1.50275 c 0.27324,0 0.40985,0.136613 0.40985,0.273225 l 3.96189,9.153271 c 0.40985,0.819703 0.54646,1.776004 0.8197,2.322509 0,-0.819703 -0.13661,-1.776004 -0.13661,-2.595761 v -8.743392 c 0,-0.273239 0.13661,-0.409852 0.40985,-0.409852 h 0.68308 c 0.27323,0 0.40985,0.136613 0.40985,0.409852 v 12.15891 c 0,0.273239 -0.13662,0.409851 -0.40985,0.409851 z"
       id="path4"
       style="fill:#ffffff;stroke-width:1.36617" />
    <path
       class="st1"
       d="m 33.76495,83.650627 h -3.41538 c -0.27324,0 -0.40985,-0.136613 -0.40985,-0.409851 v -0.409851 c 0,-0.273239 0.13661,-0.409852 0.40985,-0.409852 h 0.95631 V 72.038167 h -0.95631 c -0.27324,0 -0.40985,-0.136613 -0.40985,-0.409852 v -0.409851 c 0,-0.273239 0.13661,-0.409851 0.40985,-0.409851 h 3.41538 c 0.27324,0 0.40985,0.136612 0.40985,0.409851 v 0.409851 c 0,0.273239 -0.13661,0.409852 -0.40985,0.409852 h -0.95632 v 10.382906 h 0.95632 c 0.27324,0 0.40985,0.136613 0.40985,0.409852 v 0.409851 c 0,0.273238 -0.13661,0.409851 -0.40985,0.409851 z"
       id="path6"
       style="fill:#ffffff;stroke-width:1.36617" />
    <path
       class="st1"
       d="m 41.41629,83.241296 c 0,0.273239 -0.27324,0.409851 -0.54647,0.409851 H 39.7769 c -0.27324,0 -0.40985,-0.136612 -0.54647,-0.409851 l -3.552,-12.15891 c -0.13662,-0.273239 0.13661,-0.409852 0.27322,-0.409852 h 0.95632 c 0.27323,0 0.40985,0.136613 0.54646,0.409852 l 2.45914,9.289897 c 0.13661,0.546463 0.27323,1.502751 0.40985,2.049256 0.13661,-0.683076 0.27323,-1.639378 0.40985,-2.049256 l 2.45913,-9.289897 c 0,-0.273239 0.27324,-0.409852 0.40985,-0.409852 h 0.81971 c 0.27323,0 0.40985,0.136613 0.27323,0.409852 z"
       id="path8"
       style="fill:#ffffff;stroke-width:1.36617" />
    <path
       class="st1"
       d="m 54.12198,83.650627 h -6.01114 c -0.27323,0 -0.40986,-0.136613 -0.40986,-0.409851 V 71.081865 c 0,-0.273238 0.13662,-0.409851 0.40986,-0.409851 h 5.87451 c 0.27324,0 0.40985,0.136613 0.40985,0.409851 v 0.683077 c 0,0.273238 -0.13661,0.409851 -0.40985,0.409851 h -4.64502 v 3.961886 h 4.23514 c 0.27323,0 0.40985,0.136612 0.40985,0.409851 v 0.546464 c 0,0.273225 -0.13661,0.409851 -0.40985,0.409851 h -4.23514 v 4.645017 h 4.78151 c 0.27324,0 0.40985,0.136613 0.40985,0.409851 v 0.683076 c 0,0.273239 -0.13661,0.409852 -0.40985,0.409852 z"
       id="path10"
       style="fill:#ffffff;stroke-width:1.36617" />
    <path
       class="st1"
       d="m 65.73384,83.650627 h -1.09293 c -0.13661,0 -0.27324,0 -0.40985,-0.273239 -0.54647,-1.639377 -0.95632,-3.005502 -1.50275,-3.961886 -0.40986,-0.819702 -1.09293,-1.639377 -2.45914,-1.639377 h -0.95631 v 5.464637 c 0,0.273239 -0.13662,0.409851 -0.40986,0.409851 h -0.68307 c -0.27324,0 -0.40985,-0.136612 -0.40985,-0.409851 v -12.15891 c 0,-0.273239 0.13661,-0.409852 0.40985,-0.409852 h 3.27875 c 3.14213,0 3.82526,1.91263 3.82526,3.142129 0,1.366166 -0.8197,3.005503 -2.86887,3.142129 h -0.13662 c 1.09293,0.136613 1.91263,1.229554 2.32251,2.049256 0.13662,0.409851 0.68308,1.776004 1.50275,3.961886 0,0.546464 -0.13661,0.683076 -0.40985,0.683076 z M 61.36207,72.174848 h -2.04926 v 4.235138 h 1.91264 c 1.50275,0 2.45913,-0.819702 2.45913,-2.185882 -0.13661,-1.229554 -0.8197,-2.049256 -2.32251,-2.049256 z"
       id="path12"
       style="fill:#ffffff;stroke-width:1.36617" />
    <path
       class="st1"
       d="m 71.06198,83.787527 c -1.09292,0 -2.18588,-0.273239 -3.0055,-0.546464 -0.27324,-0.136612 -0.27324,-0.273225 -0.27324,-0.546463 l 0.13661,-0.683077 c 0,-0.273238 0.27324,-0.409851 0.54647,-0.273238 0.68307,0.273238 1.63938,0.546463 2.59576,0.546463 1.50275,0 2.45913,-0.819702 2.45913,-2.185882 0,-1.229554 -0.8197,-1.776004 -1.91263,-2.185882 l -0.95631,-0.409852 c -1.36617,-0.683076 -2.86888,-1.229553 -2.86888,-3.415381 0,-1.91263 1.36617,-3.415381 3.82526,-3.415381 0.81971,0 1.77601,0.273225 2.32251,0.409851 0.13661,0 0.27323,0.273239 0.27323,0.546464 l -0.13662,0.683076 c 0,0.273225 -0.27324,0.409852 -0.40985,0.273225 -0.68307,-0.136612 -1.22955,-0.409851 -2.04925,-0.409851 -1.63938,0 -2.18589,0.683076 -2.18589,1.91263 0,1.092927 0.95632,1.639377 2.04926,2.049256 l 1.09293,0.409851 c 1.36616,0.546464 2.59576,1.502752 2.59576,3.552008 0.13661,1.91263 -1.22956,3.688633 -4.09851,3.688633 z"
       id="path14"
       style="fill:#ffffff;stroke-width:1.36617" />
    <path
       class="st1"
       d="m 80.76135,83.650627 h -3.41538 c -0.27324,0 -0.40985,-0.136613 -0.40985,-0.409851 v -0.409851 c 0,-0.273239 0.13661,-0.409852 0.40985,-0.409852 h 0.95631 V 72.038167 h -0.95631 c -0.27324,0 -0.40985,-0.136613 -0.40985,-0.409852 v -0.409851 c 0,-0.273239 0.13661,-0.409851 0.40985,-0.409851 h 3.41538 c 0.27324,0 0.40985,0.136612 0.40985,0.409851 v 0.409851 c 0,0.273239 -0.13661,0.409852 -0.40985,0.409852 h -0.95632 v 10.382906 h 0.95632 c 0.27324,0 0.40985,0.136613 0.40985,0.409852 v 0.409851 c 0,0.273238 -0.13661,0.409851 -0.40985,0.409851 z"
       id="path16"
       style="fill:#ffffff;stroke-width:1.36617" />
    <path
       class="st1"
       d="M 90.18828,72.175669 H 87.31941 V 83.24157 c 0,0.273239 -0.13662,0.409851 -0.40985,0.409851 h -0.68308 c -0.27324,0 -0.40985,-0.136612 -0.40985,-0.409851 V 72.175669 h -2.86888 c -0.27324,0 -0.40985,-0.136613 -0.40985,-0.409851 v -0.683076 c 0,-0.273239 0.13661,-0.409852 0.40985,-0.409852 h 7.37727 c 0.27322,0 0.40985,0.136613 0.40985,0.409852 v 0.683076 c -0.13661,0.273238 -0.40985,0.409851 -0.54646,0.409851 z"
       id="path18"
       style="fill:#ffffff;stroke-width:1.36617" />
    <path
       class="st1"
       d="m 96.33646,78.733179 v 4.508391 c 0,0.273239 -0.13661,0.409851 -0.40985,0.409851 h -0.68307 c -0.27324,0 -0.40986,-0.136612 -0.40986,-0.409851 v -4.508391 l -3.552,-7.65052 c -0.13662,-0.136612 0,-0.409851 0.27322,-0.409851 h 1.22955 c 0.13662,0 0.27323,0.136613 0.40986,0.273225 l 1.91263,4.781506 c 0.40985,0.819703 0.40985,1.366167 0.54646,2.049257 0.13661,-0.683077 0.27324,-1.092928 0.54646,-2.049257 l 1.91263,-4.645017 c 0.13662,-0.273238 0.13662,-0.273238 0.40985,-0.273238 h 1.09293 c 0.13661,0 0.27324,0.136612 0.13661,0.409851 z"
       id="path20"
       style="fill:#ffffff;stroke-width:1.36617" />
    <path
       class="st1"
       d="m 110.27014,83.787527 c -2.86887,0 -4.37176,-2.049256 -4.37176,-6.557647 0,-4.508391 1.50275,-6.557647 4.37176,-6.557647 2.86888,0 4.37177,2.049256 4.37177,6.557647 -0.13661,4.508391 -1.63938,6.557647 -4.37177,6.557647 z m -0.13661,-11.885658 c -2.45913,0 -2.73239,2.732387 -2.73239,5.328011 0,3.688634 0.81971,5.191385 2.73239,5.191385 2.04926,0 2.73239,-2.049256 2.73239,-5.191385 0,-2.868876 -0.40985,-5.328011 -2.73239,-5.328011 z"
       id="path22"
       style="fill:#ffffff;stroke-width:1.36617" />
    <path
       class="st1"
       d="m 123.93276,72.175669 h -4.50839 v 3.961886 h 4.09852 c 0.27323,0 0.40985,0.136613 0.40985,0.409851 v 0.546464 c 0,0.273225 -0.13662,0.409851 -0.40985,0.409851 h -4.09852 v 5.73789 c 0,0.273239 -0.13661,0.409851 -0.40985,0.409851 h -0.68307 c -0.27324,0 -0.40986,-0.136612 -0.40986,-0.409851 V 71.0827 c 0,-0.273238 0.13662,-0.409851 0.40986,-0.409851 h 5.73789 c 0.27322,0 0.40985,0.136613 0.40985,0.409851 v 0.683077 c -0.13662,0.273238 -0.27324,0.409851 -0.54647,0.409851 z"
       id="path24"
       style="fill:#ffffff;stroke-width:1.36617" />
    <path
       class="st1"
       d="m 137.32706,72.175669 h -2.86901 V 83.24157 c 0,0.273239 -0.13662,0.409851 -0.40985,0.409851 h -0.68308 c -0.27324,0 -0.40985,-0.136612 -0.40985,-0.409851 V 72.175669 h -2.86888 c -0.27324,0 -0.40985,-0.136613 -0.40985,-0.409851 v -0.683076 c 0,-0.273239 0.13661,-0.409852 0.40985,-0.409852 h 7.37727 c 0.27324,0 0.40985,0.136613 0.40985,0.409852 v 0.683076 c -0.13663,0.273238 -0.27324,0.409851 -0.54646,0.409851 z"
       id="path26"
       style="fill:#ffffff;stroke-width:1.36617" />
    <path
       class="st1"
       d="m 146.33508,83.650627 h -6.01114 c -0.27324,0 -0.40985,-0.136613 -0.40985,-0.409851 V 71.081865 c 0,-0.273238 0.13662,-0.409851 0.40985,-0.409851 h 5.87451 c 0.27324,0 0.40986,0.136613 0.40986,0.409851 v 0.683077 c 0,0.273238 -0.13663,0.409851 -0.40986,0.409851 h -4.64501 v 3.961886 h 4.23514 c 0.27323,0 0.40985,0.136612 0.40985,0.409851 v 0.546464 c 0,0.273225 -0.13663,0.409851 -0.40985,0.409851 h -4.23514 v 4.645017 h 4.78164 c 0.27323,0 0.40984,0.136613 0.40984,0.409851 v 0.683076 c 0,0.273239 -0.27323,0.409852 -0.40984,0.409852 z"
       id="path28"
       style="fill:#ffffff;stroke-width:1.36617" />
    <path
       class="st1"
       d="m 156.31509,83.241296 c -0.54646,0.273239 -1.22954,0.546464 -2.32251,0.546464 -3.14213,0 -4.91813,-2.459135 -4.91813,-6.694136 0,-4.098513 2.04926,-6.421021 4.91813,-6.421021 0.68309,0 1.50275,0.136612 2.18588,0.546464 0.13663,0.136612 0.27323,0.409851 0.13663,0.546463 l -0.27323,0.546464 c -0.13662,0.136613 -0.27323,0.273225 -0.54646,0.136613 -0.40985,-0.273225 -0.8197,-0.409852 -1.50275,-0.409852 -2.18588,0 -3.41538,1.502752 -3.41538,5.054759 0,3.552007 1.36616,5.191385 3.27875,5.191385 0.54647,0 1.22956,-0.273225 1.63938,-0.409851 0.27323,-0.136613 0.40984,0 0.54646,0.136612 l 0.40984,0.683076 c 0.13663,0.273239 0,0.409852 -0.13662,0.546464 z"
       id="path30"
       style="fill:#ffffff;stroke-width:1.36617" />
    <path
       class="st1"
       d="m 166.96591,83.650627 h -0.68308 c -0.27323,0 -0.40985,-0.136613 -0.40985,-0.409851 v -5.73789 h -4.91813 v 5.73789 c 0,0.273238 -0.13663,0.409851 -0.40985,0.409851 h -0.68308 c -0.27324,0 -0.40985,-0.136613 -0.40985,-0.409851 V 71.081865 c 0,-0.273238 0.13663,-0.409851 0.40985,-0.409851 h 0.68308 c 0.27324,0 0.40985,0.136613 0.40985,0.409851 v 4.918133 h 4.91813 v -4.918133 c 0,-0.273238 0.13663,-0.409851 0.40985,-0.409851 h 0.68308 c 0.27324,0 0.40985,0.136613 0.40985,0.409851 v 12.158911 c 0,0.273238 -0.13662,0.409851 -0.40985,0.409851 z"
       id="path32"
       style="fill:#ffffff;stroke-width:1.36617" />
    <path
       class="st1"
       d="m 179.39643,83.650627 h -1.36617 c -0.13662,0 -0.40985,-0.136613 -0.40985,-0.273239 l -4.09851,-9.153271 c -0.40985,-0.819702 -0.68309,-1.639377 -0.8197,-2.459134 0,0.819702 0.13662,2.049256 0.13662,2.595761 v 8.880018 c 0,0.136613 -0.13662,0.409851 -0.40983,0.409851 h -0.68309 c -0.27323,0 -0.40985,-0.136612 -0.40985,-0.409851 v -12.15891 c 0,-0.273239 0.13662,-0.409852 0.40985,-0.409852 h 1.50275 c 0.27324,0 0.40985,0.136613 0.40985,0.273225 l 3.96189,9.153271 c 0.40985,0.819703 0.54647,1.776004 0.8197,2.322509 0,-0.819703 -0.13663,-1.776004 -0.13663,-2.595761 v -8.743392 c 0,-0.273239 0.13663,-0.409852 0.40985,-0.409852 h 0.68308 c 0.27324,0 0.40985,0.136613 0.40985,0.409852 v 12.15891 c 0,0.273239 -0.27324,0.409851 -0.40985,0.409851 z"
       id="path34"
       style="fill:#ffffff;stroke-width:1.36617" />
    <path
       class="st1"
       d="m 187.45984,83.787527 c -2.86888,0 -4.37176,-2.049256 -4.37176,-6.557647 0,-4.508391 1.50275,-6.557647 4.37176,-6.557647 2.86901,0 4.37176,2.049256 4.37176,6.557647 -0.13662,4.508391 -1.63937,6.557647 -4.37176,6.557647 z m -0.13663,-11.885658 c -2.45913,0 -2.73238,2.732387 -2.73238,5.328011 0,3.688634 0.8197,5.191385 2.73238,5.191385 2.04926,0 2.73225,-2.049256 2.73225,-5.191385 0,-2.868876 -0.40985,-5.328011 -2.73225,-5.328011 z"
       id="path36"
       style="fill:#ffffff;stroke-width:1.36617" />
    <path
       class="st1"
       d="m 200.84866,83.650627 h -5.32801 c -0.27324,0 -0.40985,-0.136613 -0.40985,-0.409851 V 71.081865 c 0,-0.273238 0.13662,-0.409851 0.40985,-0.409851 h 0.68308 c 0.27323,0 0.40985,0.136613 0.40985,0.409851 v 11.065901 h 4.23513 c 0.27323,0 0.40984,0.136613 0.40984,0.409851 v 0.683077 c -0.13662,0.273238 -0.27322,0.409851 -0.40984,0.409851 z"
       id="path38"
       style="fill:#ffffff;stroke-width:1.36617" />
    <path
       class="st1"
       d="m 207.13237,83.787527 c -2.86888,0 -4.37176,-2.049256 -4.37176,-6.557647 0,-4.508391 1.50275,-6.557647 4.37176,-6.557647 2.86901,0 4.37176,2.049256 4.37176,6.557647 0,4.508391 -1.50275,6.557647 -4.37176,6.557647 z m 0,-11.885658 c -2.45913,0 -2.73239,2.732387 -2.73239,5.328011 0,3.688634 0.81971,5.191385 2.73239,5.191385 2.04926,0 2.73225,-2.049256 2.73225,-5.191385 -0.13663,-2.868876 -0.54646,-5.328011 -2.73225,-5.328011 z"
       id="path40"
       style="fill:#ffffff;stroke-width:1.36617" />
    <path
       class="st1"
       d="m 221.75329,83.378196 c -0.68309,0.273239 -1.91263,0.409851 -2.86888,0.409851 -3.27875,0 -4.91813,-2.185882 -4.91813,-6.557647 0,-4.098512 1.91263,-6.42102 5.19139,-6.42102 0.95631,0 2.04925,0.273238 2.86887,0.683076 0.27324,0.136612 0.27324,0.273225 0.13663,0.546464 l -0.27324,0.683076 c 0,0.136612 -0.27323,0.273239 -0.40985,0.136612 -0.68308,-0.409851 -1.36615,-0.546463 -2.32251,-0.546463 -2.45913,0 -3.55201,1.639377 -3.55201,5.054758 0,3.688634 1.36617,5.054759 3.68864,5.054759 0.54646,0 1.09292,-0.136613 1.63937,-0.273225 v -4.371765 h -2.04925 c -0.27324,0 -0.40985,-0.136612 -0.40985,-0.409851 v -0.683076 c 0,-0.273225 0.13662,-0.409851 0.40985,-0.409851 h 3.14213 c 0.27324,0 0.40985,0.136612 0.40985,0.409851 v 6.011142 c -0.13663,0.273239 -0.27323,0.546464 -0.68308,0.683076 z"
       id="path42"
       style="fill:#ffffff;stroke-width:1.36617" />
    <path
       class="st1"
       d="m 229.5429,78.733179 v 4.508391 c 0,0.273239 -0.13663,0.409851 -0.40985,0.409851 h -0.68308 c -0.27324,0 -0.40985,-0.136612 -0.40985,-0.409851 v -4.508391 l -3.55201,-7.65052 c -0.13662,-0.136612 0,-0.409851 0.27323,-0.409851 h 1.22955 c 0.13663,0 0.27323,0.136613 0.40985,0.273225 l 1.91263,4.781506 c 0.40984,0.819703 0.40984,1.366167 0.54647,2.049257 0.13662,-0.683077 0.27322,-1.092928 0.54646,-2.049257 l 1.91263,-4.645017 c 0.13663,-0.273238 0.13663,-0.273238 0.40985,-0.273238 h 1.09293 c 0.13663,0 0.27322,0.136612 0.13663,0.409851 z"
       id="path44"
       style="fill:#ffffff;stroke-width:1.36617" />
    <path
       class="st1"
       d="m 87.65979,121.45951 c -0.54084,0.27042 -1.21689,0.54084 -2.29859,0.54084 -3.10977,0 -4.86748,-2.43381 -4.86748,-6.62519 0,-4.0563 2.02815,-6.35489 4.86748,-6.35489 0.67604,0 1.48728,0.13521 2.16337,0.54084 0.13521,0.1352 0.27042,0.40563 0.13521,0.54083 l -0.27043,0.54084 c -0.13521,0.1352 -0.27041,0.27042 -0.54083,0.1352 -0.40564,-0.27042 -0.81126,-0.40563 -1.48728,-0.40563 -2.16337,0 -3.3802,1.48728 -3.3802,5.0027 0,3.51542 1.35209,5.13792 3.24498,5.13792 0.54084,0 1.21689,-0.27043 1.62249,-0.40563 0.27043,-0.13521 0.40563,0 0.54084,0.1352 l 0.40563,0.67604 c 0.13521,0.27043 0,0.54084 -0.13521,0.54084 z"
       id="path48"
       style="fill:#ffffff;stroke-width:1.3521" />
    <path
       class="st1"
       d="m 98.20633,121.86598 h -0.67604 c -0.27043,0 -0.40563,-0.1352 -0.40563,-0.40563 v -5.67879 h -4.86748 v 5.67879 c 0,0.27042 -0.1352,0.40563 -0.40563,0.40563 h -0.67604 c -0.27042,0 -0.40563,-0.1352 -0.40563,-0.40563 v -12.03368 c 0,-0.27041 0.13521,-0.40563 0.40563,-0.40563 h 0.67604 c 0.27043,0 0.40563,0.13521 0.40563,0.40563 v 4.86748 h 4.86748 v -4.86748 c 0,-0.27041 0.1352,-0.40563 0.40563,-0.40563 h 0.67604 c 0.27043,0 0.40563,0.13521 0.40563,0.40563 v 12.03368 c 0,0.27042 -0.1352,0.40563 -0.40563,0.40563 z"
       id="path50"
       style="fill:#ffffff;stroke-width:1.3521" />
    <path
       class="st1"
       d="m 109.0225,121.86598 h -5.94923 c -0.27043,0 -0.40563,-0.1352 -0.40563,-0.40563 v -12.03368 c 0,-0.27041 0.1352,-0.40563 0.40563,-0.40563 h 5.81401 c 0.27042,0 0.40563,0.13521 0.40563,0.40563 v 0.67605 c 0,0.27041 -0.13521,0.40563 -0.40563,0.40563 h -4.59718 v 3.92108 h 4.19152 c 0.27043,0 0.40563,0.1352 0.40563,0.40563 v 0.54083 c 0,0.27043 -0.1352,0.40563 -0.40563,0.40563 h -4.19152 v 4.59718 h 4.73226 c 0.27041,0 0.40563,0.1352 0.40563,0.40563 v 0.67604 c -0.1352,0.27041 -0.27041,0.40563 -0.40563,0.40563 z"
       id="path52"
       style="fill:#ffffff;stroke-width:1.3521" />
    <path
       class="st1"
       d="m 122.81402,121.86598 h -0.94646 c -0.27043,0 -0.40563,-0.1352 -0.40563,-0.27042 l -0.54084,-8.92378 v -2.56902 c -0.1352,0.54083 -0.1352,1.75771 -0.40563,2.56902 l -2.16337,7.57172 c -0.1352,0.27043 -0.1352,0.40563 -0.40563,0.40563 h -1.08167 c -0.27042,0 -0.27042,-0.1352 -0.40563,-0.40563 l -2.02815,-7.57172 c -0.27042,-0.81126 -0.27042,-1.89293 -0.40563,-2.56902 v 2.56902 l -0.54083,8.92378 c 0,0.27042 -0.13521,0.40563 -0.27041,0.40563 h -0.94647 c -0.1352,0 -0.27042,-0.13521 -0.27042,-0.40563 l 0.94646,-12.03368 c 0,-0.27041 0.27043,-0.40563 0.40563,-0.40563 h 1.48728 c 0.1352,0 0.40563,0.13521 0.40563,0.27041 l 2.02815,7.97738 c 0.1352,0.54084 0.27041,1.48727 0.27041,2.16337 0,-0.67604 0.1352,-1.48727 0.27042,-2.16337 l 2.02815,-7.97738 c 0,-0.1352 0.27043,-0.27041 0.40563,-0.27041 h 1.48728 c 0.27042,0 0.40563,0.13521 0.40563,0.40563 l 0.94646,12.03368 c 0,0.13521 -0.1352,0.27042 -0.27041,0.27042 z"
       id="path54"
       style="fill:#ffffff;stroke-width:1.3521" />
    <path
       class="st1"
       d="m 134.30764,121.86598 h -1.35209 c -0.13521,0 -0.40563,-0.1352 -0.40563,-0.27042 l -4.0563,-9.059 c -0.40563,-0.81126 -0.67604,-1.62249 -0.81126,-2.4338 0,0.81126 0.1352,2.02815 0.1352,2.56902 v 8.78856 c 0,0.13521 -0.1352,0.40563 -0.40563,0.40563 h -0.67604 c -0.27042,0 -0.40563,-0.1352 -0.40563,-0.40563 v -12.03368 c 0,-0.27041 0.13521,-0.40563 0.40563,-0.40563 h 1.48727 c 0.27043,0 0.40563,0.13521 0.40563,0.27043 l 3.92108,9.05899 c 0.40563,0.81126 0.54084,1.75771 0.81126,2.29859 0,-0.81126 -0.1352,-1.75771 -0.1352,-2.56903 v -8.65334 c 0,-0.27041 0.1352,-0.40563 0.40563,-0.40563 h 0.67604 c 0.27042,0 0.40563,0.13521 0.40563,0.40563 v 12.03368 c 0,0.27042 -0.27042,0.40563 -0.40563,0.40563 z"
       id="path56"
       style="fill:#ffffff;stroke-width:1.3521" />
    <path
       class="st1"
       d="m 141.06724,121.86598 h -3.38021 c -0.27042,0 -0.40563,-0.1352 -0.40563,-0.40563 v -0.40563 c 0,-0.27042 0.13522,-0.40563 0.40563,-0.40563 h 0.94647 v -10.27596 h -0.94647 c -0.27042,0 -0.40563,-0.13521 -0.40563,-0.40563 v -0.40563 c 0,-0.27041 0.13522,-0.40563 0.40563,-0.40563 h 3.38021 c 0.27041,0 0.40563,0.1352 0.40563,0.40563 v 0.40563 c 0,0.27041 -0.13522,0.40563 -0.40563,0.40563 h -0.94647 v 10.27596 h 0.94647 c 0.27041,0 0.40563,0.13521 0.40563,0.40563 v 0.40563 c 0,0.27042 -0.13522,0.40563 -0.40563,0.40563 z"
       id="path58"
       style="fill:#ffffff;stroke-width:1.3521" />
    <path
       class="st1"
       d="m 150.4025,110.50786 h -2.83933 v 10.95193 c 0,0.27041 -0.13522,0.40563 -0.40563,0.40563 h -0.67605 c -0.27042,0 -0.40563,-0.13521 -0.40563,-0.40563 v -10.95193 h -2.83933 c -0.27041,0 -0.40562,-0.13521 -0.40562,-0.40563 v -0.67604 c 0,-0.27041 0.13522,-0.40563 0.40562,-0.40563 h 7.30128 c 0.27041,0 0.40563,0.1352 0.40563,0.40563 v 0.67604 c -0.13522,0.27041 -0.27042,0.40563 -0.54085,0.40563 z"
       id="path60"
       style="fill:#ffffff;stroke-width:1.3521" />
    <path
       class="st1"
       d="m 159.18225,121.86598 h -6.89563 c -0.27041,0 -0.40561,-0.1352 -0.40561,-0.40563 v -0.81126 c 0,-0.27042 0.13521,-0.40563 0.13521,-0.54083 l 5.13792,-9.059 c 0.13522,-0.27041 0.54084,-0.67604 0.67604,-0.81126 -0.27042,0.13521 -0.67604,0.13521 -1.08167,0.13521 h -4.32674 c -0.27042,0 -0.40563,-0.13521 -0.40563,-0.40563 v -0.67604 c 0,-0.27043 0.13522,-0.40563 0.40563,-0.40563 h 6.48997 c 0.27043,0 0.40563,0.1352 0.40563,0.40563 v 0.67604 c 0,0.27041 -0.13521,0.40563 -0.27041,0.67604 l -5.13791,8.92378 c -0.27043,0.40563 -0.54084,0.67604 -0.67606,0.81126 0.27043,0 0.67606,-0.13521 0.94647,-0.13521 h 4.86761 c 0.27041,0 0.40562,0.13521 0.40562,0.40563 v 0.67604 c 0.13522,0.40563 0,0.54084 -0.27041,0.54084 z"
       id="path62"
       style="fill:#ffffff;stroke-width:1.3521" />
    <path
       class="st1"
       d="M 9.6544,100.30233 H 7.19524 c -0.13662,0 -0.27324,-0.13662 -0.27324,-0.27324 v -0.273238 c 0,-0.13662 0.13662,-0.27324 0.27324,-0.27324 h 0.6831 v -7.24086 h -0.6831 c -0.13662,0 -0.27324,-0.13662 -0.27324,-0.27324 v -0.27324 c 0,-0.13662 0.13662,-0.27324 0.27324,-0.27324 H 9.6544 c 0.13662,0 0.27324,0.13662 0.27324,0.27324 v 0.27324 c 0,0.13662 -0.13662,0.27324 -0.27324,0.27324 H 8.9713 v 7.24086 h 0.6831 c 0.13662,0 0.27324,0.13662 0.27324,0.27324 v 0.273238 c 0,0.13662 -0.13662,0.27324 -0.27324,0.27324 z"
       id="path66"
       style="fill:#ffffff;stroke-width:1.3662" />
    <path
       class="st1"
       d="m 17.57836,100.30233 h -0.95634 c -0.13662,0 -0.27324,-0.13662 -0.27324,-0.27324 l -2.86902,-6.284518 c -0.27324,-0.54648 -0.40986,-1.22958 -0.54648,-1.77606 0,0.54648 0.13662,1.3662 0.13662,1.77606 v 6.1479 c 0,0.136618 -0.13662,0.273238 -0.27324,0.273238 h -0.54648 c -0.13662,0 -0.27324,-0.13662 -0.27324,-0.273238 v -8.47044 c 0,-0.13662 0.13662,-0.27324 0.27324,-0.27324 h 0.95634 c 0.13662,0 0.27324,0 0.27324,0.13662 l 2.7324,6.28452 c 0.27324,0.54648 0.40986,1.22958 0.54648,1.63944 0,-0.54648 -0.13662,-1.22958 -0.13662,-1.77606 v -6.01128 c 0,-0.13662 0.13662,-0.27324 0.27324,-0.27324 h 0.40986 c 0.13662,0 0.27324,0.13662 0.27324,0.27324 v 8.47044 c 0.27324,0.409858 0.13662,0.409858 0,0.409858 z"
       id="path68"
       style="fill:#ffffff;stroke-width:1.3662" />
    <path
       class="st1"
       d="m 29.05444,92.378372 h -2.0493 v 7.650718 c 0,0.13662 -0.13662,0.27324 -0.27324,0.27324 h -0.54648 c -0.13662,0 -0.27324,-0.13662 -0.27324,-0.27324 V 92.378372 H 23.9995 c -0.13662,0 -0.27324,-0.13662 -0.27324,-0.27324 v -0.40986 c 0,-0.13662 0.13662,-0.27324 0.27324,-0.27324 h 5.19156 c 0.13662,0 0.27324,0.13662 0.27324,0.27324 v 0.40986 c -0.13662,0.13662 -0.27324,0.27324 -0.40986,0.27324 z"
       id="path70"
       style="fill:#ffffff;stroke-width:1.3662" />
    <path
       class="st1"
       d="m 36.2953,100.30233 h -0.54648 c -0.13662,0 -0.27324,-0.13662 -0.27324,-0.27324 v -3.961978 h -3.4155 v 3.961978 c 0,0.13662 -0.13662,0.27324 -0.27324,0.27324 h -0.54648 c -0.13662,0 -0.27324,-0.13662 -0.27324,-0.27324 v -8.470438 c 0,-0.13662 0.13662,-0.27324 0.27324,-0.27324 h 0.54648 c 0.13662,0 0.27324,0.13662 0.27324,0.27324 v 3.55212 h 3.4155 v -3.4155 c 0,-0.13662 0.13662,-0.27324 0.27324,-0.27324 h 0.54648 c 0.13662,0 0.27324,0.13662 0.27324,0.27324 v 8.470438 c 0,0.13662 -0.13662,0.13662 -0.27324,0.13662 z"
       id="path72"
       style="fill:#ffffff;stroke-width:1.3662" />
    <path
       class="st1"
       d="m 43.94602,100.30233 h -4.0986 c -0.13662,0 -0.27324,-0.13662 -0.27324,-0.27324 v -8.470438 c 0,-0.13662 0.13662,-0.27324 0.27324,-0.27324 h 4.0986 c 0.13662,0 0.27324,0.13662 0.27324,0.27324 v 0.40986 c 0,0.13662 -0.13662,0.27324 -0.27324,0.27324 h -3.27888 v 2.7324 h 3.00564 c 0.13662,0 0.27324,0.13662 0.27324,0.27324 v 0.40986 c 0,0.13662 -0.13662,0.27324 -0.27324,0.27324 h -3.00564 v 3.27888 h 3.4155 c 0.13662,0 0.27324,0.13662 0.27324,0.27324 v 0.546478 c -0.13662,0.27324 -0.27324,0.27324 -0.40986,0.27324 z"
       id="path74"
       style="fill:#ffffff;stroke-width:1.3662" />
    <path
       class="st1"
       d="m 55.01224,100.30233 h -4.0986 c -0.13662,0 -0.27324,-0.13662 -0.27324,-0.27324 v -8.470438 c 0,-0.13662 0.13662,-0.27324 0.27324,-0.27324 h 4.0986 c 0.13662,0 0.27324,0.13662 0.27324,0.27324 v 0.40986 c 0,0.13662 -0.13662,0.27324 -0.27324,0.27324 h -3.27888 v 2.7324 H 54.739 c 0.13662,0 0.27324,0.13662 0.27324,0.27324 v 0.40986 c 0,0.13662 -0.13662,0.27324 -0.27324,0.27324 h -3.00564 v 3.27888 h 3.4155 c 0.13662,0 0.27324,0.13662 0.27324,0.27324 v 0.546478 c 0,0.27324 -0.13662,0.27324 -0.40986,0.27324 z"
       id="path76"
       style="fill:#ffffff;stroke-width:1.3662" />
    <path
       class="st1"
       d="m 60.47704,100.43895 c -1.91268,0 -2.7324,-1.092958 -2.7324,-2.732398 v -6.01128 c 0,-0.13662 0.13662,-0.27324 0.27324,-0.27324 h 0.54648 c 0.13662,0 0.27324,0.13662 0.27324,0.27324 v 5.73804 c 0,1.22958 0.40986,2.0493 1.63944,2.0493 0.95634,0 1.77606,-0.27324 1.77606,-1.91268 v -5.87466 c 0,-0.13662 0.13662,-0.27324 0.27324,-0.27324 h 0.54648 c 0.13662,0 0.27324,0.13662 0.27324,0.27324 v 6.01128 c -0.13662,1.77606 -1.09296,2.732398 -2.86902,2.732398 z"
       id="path78"
       style="fill:#ffffff;stroke-width:1.3662" />
    <path
       class="st1"
       d="m 71.67988,100.30233 h -0.81972 c -0.13662,0 -0.13662,0 -0.27324,-0.13662 -0.40986,-1.229578 -0.6831,-2.049298 -0.95634,-2.732398 -0.27324,-0.54648 -0.6831,-1.09296 -1.77606,-1.09296 h -0.6831 v 3.825358 c 0,0.13662 -0.13662,0.27324 -0.27324,0.27324 H 66.3517 c -0.13662,0 -0.27324,-0.13662 -0.27324,-0.27324 v -8.470438 c 0,-0.13662 0.13662,-0.27324 0.27324,-0.27324 h 2.32254 c 2.18592,0 2.59578,1.3662 2.59578,2.18592 0,0.95634 -0.54648,2.0493 -2.0493,2.18592 H 69.0841 c 0.81972,0.13662 1.3662,0.81972 1.63944,1.50282 0.13662,0.27324 0.54648,1.22958 1.09296,2.732398 0.13662,0.13662 0.13662,0.27324 -0.13662,0.27324 z m -3.00564,-7.923958 h -1.50282 v 2.86902 H 68.401 c 1.09296,0 1.77606,-0.54648 1.77606,-1.50282 0.13662,-0.81972 -0.40986,-1.3662 -1.50282,-1.3662 z"
       id="path80"
       style="fill:#ffffff;stroke-width:1.3662" />
    <path
       class="st1"
       d="m 76.5982,100.43895 c -2.0493,0 -3.00564,-1.366198 -3.00564,-4.508458 0,-3.14226 1.09296,-4.50846 3.00564,-4.50846 2.0493,0 3.00564,1.50282 3.00564,4.50846 0,3.14226 -1.09296,4.508458 -3.00564,4.508458 z m 0,-8.197198 c -1.77606,0 -1.91268,1.91268 -1.91268,3.68874 0,2.45916 0.54648,3.55212 1.91268,3.55212 1.3662,0 1.91268,-1.3662 1.91268,-3.55212 -0.13662,-2.0493 -0.40986,-3.68874 -1.91268,-3.68874 z"
       id="path82"
       style="fill:#ffffff;stroke-width:1.3662" />
    <path
       class="st1"
       d="m 84.1123,96.613592 h -1.09296 v 3.415498 c 0,0.13662 -0.13662,0.27324 -0.27324,0.27324 h -0.54648 c -0.13662,0 -0.27324,-0.13662 -0.27324,-0.27324 v -8.470438 c 0,-0.13662 0.13662,-0.27324 0.27324,-0.27324 h 1.91268 c 1.77606,0 2.86902,1.09296 2.86902,2.59578 0,1.63944 -1.09296,2.7324 -2.86902,2.7324 z m 0.13662,-4.23522 h -1.09296 v 3.27888 h 1.09296 c 1.09296,0 1.63944,-0.6831 1.63944,-1.77606 -0.13662,-0.95634 -0.54648,-1.50282 -1.63944,-1.50282 z"
       id="path84"
       style="fill:#ffffff;stroke-width:1.3662" />
    <path
       class="st1"
       d="m 93.53908,100.30233 h -4.0986 c -0.13662,0 -0.27324,-0.13662 -0.27324,-0.27324 v -8.470438 c 0,-0.13662 0.13662,-0.27324 0.27324,-0.27324 h 4.0986 c 0.13662,0 0.27324,0.13662 0.27324,0.27324 v 0.40986 c 0,0.13662 -0.13662,0.27324 -0.27324,0.27324 H 90.2602 v 2.7324 h 3.00564 c 0.13662,0 0.27324,0.13662 0.27324,0.27324 v 0.40986 c 0,0.13662 -0.13662,0.27324 -0.27324,0.27324 H 90.2602 v 3.27888 h 3.4155 c 0.13662,0 0.27324,0.13662 0.27324,0.27324 v 0.546478 c -0.13662,0.27324 -0.27324,0.27324 -0.40986,0.27324 z"
       id="path86"
       style="fill:#ffffff;stroke-width:1.3662" />
    <path
       class="st1"
       d="m 101.73628,100.30233 h -0.6831 c -0.13662,0 -0.27324,-0.13662 -0.40986,-0.27324 l -0.6831,-2.185918 h -3.00564 l -0.54648,2.322538 c 0,0.13662 -0.13662,0.27324 -0.27324,0.27324 h -0.6831 c -0.13662,0 -0.27324,-0.13662 -0.13662,-0.27324 l 2.45916,-8.333818 c 0,-0.13662 0.27324,-0.27324 0.40986,-0.27324 h 0.81972 c 0.13662,0 0.27324,0.13662 0.40986,0.27324 l 2.59578,8.333818 c -0.13662,0 -0.13662,0.13662 -0.27324,0.13662 z m -3.00564,-7.240858 c -0.13662,-0.27324 -0.13662,-0.6831 -0.13662,-1.09296 0,0.40986 -0.13662,0.6831 -0.13662,1.09296 l -1.09296,3.82536 h 2.45916 z"
       id="path88"
       style="fill:#ffffff;stroke-width:1.3662" />
    <path
       class="st1"
       d="m 109.387,100.30233 h -0.95634 c -0.13662,0 -0.27324,-0.13662 -0.27324,-0.27324 l -2.86902,-6.284518 c -0.27324,-0.54648 -0.40986,-1.22958 -0.54648,-1.77606 0,0.54648 0.13662,1.3662 0.13662,1.77606 v 6.1479 c 0,0.136618 -0.13662,0.273238 -0.27324,0.273238 h -0.40986 c -0.13662,0 -0.27324,-0.13662 -0.27324,-0.273238 v -8.47044 c 0,-0.13662 0.13662,-0.27324 0.27324,-0.27324 h 0.95634 c 0.13662,0 0.27324,0 0.27324,0.13662 l 2.7324,6.28452 c 0.27324,0.54648 0.40986,1.22958 0.54648,1.63944 0,-0.54648 -0.13662,-1.22958 -0.13662,-1.77606 v -6.01128 c 0,-0.13662 0.13662,-0.27324 0.27324,-0.27324 h 0.40986 c 0.13662,0 0.27324,0.13662 0.27324,0.27324 v 8.47044 c 0.13662,0.409858 0,0.409858 -0.13662,0.409858 z"
       id="path90"
       style="fill:#ffffff;stroke-width:1.3662" />
    <path
       class="st1"
       d="m 120.9997,100.02909 c -0.40986,0.13662 -0.81972,0.40986 -1.63944,0.40986 -2.18592,0 -3.4155,-1.639438 -3.4155,-4.645078 0,-2.86902 1.3662,-4.50846 3.4155,-4.50846 0.54648,0 1.09296,0 1.50282,0.40986 0.13662,0.13662 0.13662,0.27324 0.13662,0.40986 l -0.27324,0.40986 c 0,0.13662 -0.13662,0.13662 -0.40986,0.13662 -0.27324,-0.13662 -0.54648,-0.27324 -1.09296,-0.27324 -1.50282,0 -2.32254,1.09296 -2.32254,3.55212 0,2.45916 0.95634,3.55212 2.32254,3.55212 0.40986,0 0.81972,-0.13662 1.09296,-0.27324 0.13662,-0.13662 0.27324,0 0.27324,0.13662 l 0.27324,0.54648 c 0.27324,0 0.27324,0.136618 0.13662,0.136618 z"
       id="path92"
       style="fill:#ffffff;stroke-width:1.3662" />
    <path
       class="st1"
       d="m 128.78704,100.30233 h -0.6831 c -0.13662,0 -0.27324,-0.13662 -0.40986,-0.27324 l -0.54648,-2.185918 h -3.00564 l -0.54648,2.185918 c 0,0.13662 -0.13662,0.27324 -0.27324,0.27324 h -0.6831 c -0.13662,0 -0.27324,-0.13662 -0.13662,-0.27324 l 2.45916,-8.333818 c 0,-0.13662 0.27324,-0.27324 0.40986,-0.27324 h 0.81972 c 0.13662,0 0.27324,0.13662 0.40986,0.27324 l 2.59578,8.333818 c -0.13662,0.13662 -0.27324,0.27324 -0.40986,0.27324 z m -3.00564,-7.240858 c -0.13662,-0.27324 -0.13662,-0.6831 -0.13662,-1.09296 0,0.40986 -0.13662,0.6831 -0.13662,1.09296 l -1.09296,3.82536 h 2.45916 z"
       id="path94"
       style="fill:#ffffff;stroke-width:1.3662" />
    <path
       class="st1"
       d="m 133.02226,96.613592 h -1.09296 v 3.415498 c 0,0.13662 -0.13662,0.27324 -0.27324,0.27324 h -0.54648 c -0.13662,0 -0.27324,-0.13662 -0.27324,-0.27324 v -8.470438 c 0,-0.13662 0.13662,-0.27324 0.27324,-0.27324 h 1.77606 c 1.77606,0 2.86902,1.09296 2.86902,2.59578 0.13662,1.63944 -0.95634,2.7324 -2.7324,2.7324 z m 0.13662,-4.23522 h -1.22958 v 3.27888 h 1.09296 c 1.09296,0 1.63944,-0.6831 1.63944,-1.77606 0,-0.95634 -0.40986,-1.50282 -1.50282,-1.50282 z"
       id="path96"
       style="fill:#ffffff;stroke-width:1.3662" />
    <path
       class="st1"
       d="m 139.71664,100.30233 h -2.32254 c -0.13662,0 -0.27324,-0.13662 -0.27324,-0.27324 v -0.273238 c 0,-0.13662 0.13662,-0.27324 0.27324,-0.27324 h 0.6831 v -7.24086 h -0.6831 c -0.13662,0 -0.27324,-0.13662 -0.27324,-0.27324 v -0.27324 c 0,-0.13662 0.13662,-0.27324 0.27324,-0.27324 h 2.45916 c 0.13662,0 0.27324,0.13662 0.27324,0.27324 v 0.27324 c 0,0.13662 -0.13662,0.27324 -0.27324,0.27324 h -0.6831 v 7.24086 h 0.6831 c 0.13662,0 0.27324,0.13662 0.27324,0.27324 v 0.273238 c -0.13662,0.13662 -0.13662,0.27324 -0.40986,0.27324 z"
       id="path98"
       style="fill:#ffffff;stroke-width:1.3662" />
    <path
       class="st1"
       d="m 146.54764,92.378372 h -2.0493 v 7.650718 c 0,0.13662 -0.13662,0.27324 -0.27324,0.27324 h -0.54648 c -0.13662,0 -0.27324,-0.13662 -0.27324,-0.27324 v -7.650718 h -2.0493 c -0.13662,0 -0.27324,-0.13662 -0.27324,-0.27324 v -0.40986 c 0,-0.13662 0.13662,-0.27324 0.27324,-0.27324 h 5.19156 c 0.13662,0 0.27324,0.13662 0.27324,0.27324 v 0.40986 c 0,0.13662 -0.13662,0.27324 -0.27324,0.27324 z"
       id="path100"
       style="fill:#ffffff;stroke-width:1.3662" />
    <path
       class="st1"
       d="m 153.92512,100.30233 h -0.6831 c -0.13662,0 -0.27324,-0.13662 -0.40986,-0.27324 l -0.6831,-2.185918 h -3.00564 l -0.54648,2.185918 c 0,0.13662 -0.13662,0.27324 -0.27324,0.27324 h -0.6831 c -0.13662,0 -0.27324,-0.13662 -0.13662,-0.27324 l 2.45916,-8.333818 c 0,-0.13662 0.27324,-0.27324 0.40986,-0.27324 h 0.81972 c 0.13662,0 0.27324,0.13662 0.40986,0.27324 l 2.59578,8.333818 c -0.13662,0.13662 -0.13662,0.27324 -0.27324,0.27324 z m -3.00564,-7.240858 c -0.13662,-0.27324 -0.13662,-0.6831 -0.13662,-1.09296 0,0.40986 -0.13662,0.6831 -0.13662,1.09296 l -1.09296,3.82536 h 2.45916 z"
       id="path102"
       style="fill:#ffffff;stroke-width:1.3662" />
    <path
       class="st1"
       d="m 160.07302,100.30233 h -3.68874 c -0.13662,0 -0.27324,-0.13662 -0.27324,-0.27324 v -8.470438 c 0,-0.13662 0.13662,-0.27324 0.27324,-0.27324 h 0.54648 c 0.13662,0 0.27324,0.13662 0.27324,0.27324 v 7.65072 h 3.00564 c 0.13662,0 0.27324,0.13662 0.27324,0.27324 v 0.40986 c -0.13662,0.409858 -0.27324,0.409858 -0.40986,0.409858 z"
       id="path104"
       style="fill:#ffffff;stroke-width:1.3662" />
    <path
       class="st1"
       d="m 168.54346,100.43895 c -2.0493,0 -3.00564,-1.366198 -3.00564,-4.508458 0,-3.14226 1.09296,-4.50846 3.00564,-4.50846 2.0493,0 3.00564,1.50282 3.00564,4.50846 0,3.14226 -1.09296,4.508458 -3.00564,4.508458 z m 0,-8.197198 c -1.77606,0 -1.91268,1.91268 -1.91268,3.68874 0,2.45916 0.54648,3.55212 1.91268,3.55212 1.3662,0 1.91268,-1.3662 1.91268,-3.55212 0,-2.0493 -0.40986,-3.68874 -1.91268,-3.68874 z"
       id="path106"
       style="fill:#ffffff;stroke-width:1.3662" />
    <path
       class="st1"
       d="m 178.24348,92.378372 h -3.14226 v 2.7324 h 2.86902 c 0.13662,0 0.27324,0.13662 0.27324,0.27324 v 0.40986 c 0,0.13662 -0.13662,0.27324 -0.27324,0.27324 h -2.86902 v 3.961978 c 0,0.13662 -0.13662,0.27324 -0.27324,0.27324 h -0.54648 c -0.13662,0 -0.27324,-0.13662 -0.27324,-0.27324 v -8.470438 c 0,-0.13662 0.13662,-0.27324 0.27324,-0.27324 h 3.96198 c 0.13662,0 0.27324,0.13662 0.27324,0.27324 v 0.40986 c 0,0.27324 -0.13662,0.40986 -0.27324,0.40986 z"
       id="path108"
       style="fill:#ffffff;stroke-width:1.3662" />
    <path
       class="st1"
       d="m 188.89984,100.02909 c -0.40986,0.13662 -0.81972,0.40986 -1.63944,0.40986 -2.18592,0 -3.4155,-1.639438 -3.4155,-4.645078 0,-2.86902 1.3662,-4.50846 3.4155,-4.50846 0.54648,0 1.09296,0 1.50282,0.40986 0.13662,0.13662 0.13662,0.27324 0.13662,0.40986 l -0.27324,0.40986 c 0,0.13662 -0.13662,0.13662 -0.40986,0.13662 -0.27324,-0.13662 -0.54648,-0.27324 -1.09296,-0.27324 -1.50282,0 -2.32254,1.09296 -2.32254,3.55212 0,2.45916 0.95634,3.55212 2.32254,3.55212 0.40986,0 0.81972,-0.13662 1.09296,-0.27324 0.13662,-0.13662 0.27324,0 0.27324,0.13662 l 0.27324,0.54648 c 0.40986,0 0.27324,0.136618 0.13662,0.136618 z"
       id="path110"
       style="fill:#ffffff;stroke-width:1.3662" />
    <path
       class="st1"
       d="m 193.95478,100.43895 c -1.91268,0 -2.7324,-1.092958 -2.7324,-2.732398 v -6.01128 c 0,-0.13662 0.13662,-0.27324 0.27324,-0.27324 h 0.54648 c 0.13662,0 0.27324,0.13662 0.27324,0.27324 v 5.73804 c 0,1.22958 0.40986,2.0493 1.63944,2.0493 0.95634,0 1.77606,-0.27324 1.77606,-1.91268 v -5.87466 c 0,-0.13662 0.13662,-0.27324 0.27324,-0.27324 h 0.54648 c 0.13662,0 0.27324,0.13662 0.27324,0.27324 v 6.01128 c 0,1.77606 -0.95634,2.732398 -2.86902,2.732398 z"
       id="path112"
       style="fill:#ffffff;stroke-width:1.3662" />
    <path
       class="st1"
       d="m 203.79142,100.30233 h -3.68874 c -0.13662,0 -0.27324,-0.13662 -0.27324,-0.27324 v -8.470438 c 0,-0.13662 0.13662,-0.27324 0.27324,-0.27324 h 0.54648 c 0.13662,0 0.27324,0.13662 0.27324,0.27324 v 7.65072 h 3.00564 c 0.13662,0 0.27324,0.13662 0.27324,0.27324 v 0.40986 c -0.13662,0.409858 -0.27324,0.409858 -0.40986,0.409858 z"
       id="path114"
       style="fill:#ffffff;stroke-width:1.3662" />
    <path
       class="st1"
       d="m 210.21256,92.378372 h -2.0493 v 7.650718 c 0,0.13662 -0.13662,0.27324 -0.27324,0.27324 h -0.54648 c -0.13662,0 -0.27324,-0.13662 -0.27324,-0.27324 v -7.650718 h -2.0493 c -0.13662,0 -0.27324,-0.13662 -0.27324,-0.27324 v -0.40986 c 0,-0.13662 0.13662,-0.27324 0.27324,-0.27324 h 5.19156 c 0.13662,0 0.27324,0.13662 0.27324,0.27324 v 0.40986 c 0,0.13662 -0.13662,0.27324 -0.27324,0.27324 z"
       id="path116"
       style="fill:#ffffff;stroke-width:1.3662" />
    <path
       class="st1"
       d="m 214.85764,100.43895 c -1.91268,0 -2.7324,-1.092958 -2.7324,-2.732398 v -6.01128 c 0,-0.13662 0.13662,-0.27324 0.27324,-0.27324 h 0.54648 c 0.13662,0 0.27324,0.13662 0.27324,0.27324 v 5.73804 c 0,1.22958 0.40986,2.0493 1.63944,2.0493 0.95634,0 1.77606,-0.27324 1.77606,-1.91268 v -5.87466 c 0,-0.13662 0.13662,-0.27324 0.27324,-0.27324 h 0.54648 c 0.13662,0 0.27324,0.13662 0.27324,0.27324 v 6.01128 c -0.13662,1.77606 -1.09296,2.732398 -2.86902,2.732398 z"
       id="path118"
       style="fill:#ffffff;stroke-width:1.3662" />
    <path
       class="st1"
       d="m 226.06048,100.30233 h -0.81972 c -0.13662,0 -0.13662,0 -0.27324,-0.13662 -0.40986,-1.229578 -0.6831,-2.049298 -0.95634,-2.732398 -0.27324,-0.54648 -0.6831,-1.09296 -1.77606,-1.09296 h -0.6831 v 3.825358 c 0,0.13662 -0.13662,0.27324 -0.27324,0.27324 h -0.54648 c -0.13662,0 -0.27324,-0.13662 -0.27324,-0.27324 v -8.470438 c 0,-0.13662 0.13662,-0.27324 0.27324,-0.27324 h 2.32254 c 2.18592,0 2.59578,1.3662 2.59578,2.18592 0,0.95634 -0.54648,2.0493 -2.0493,2.18592 h -0.13662 c 0.81972,0.13662 1.3662,0.81972 1.63944,1.50282 0.13662,0.27324 0.54648,1.22958 1.09296,2.732398 0.13662,0.13662 0.13662,0.27324 -0.13662,0.27324 z m -3.00564,-7.923958 h -1.50282 v 2.86902 h 1.22958 c 1.09296,0 1.77606,-0.54648 1.77606,-1.50282 0,-0.81972 -0.54648,-1.3662 -1.50282,-1.3662 z"
       id="path120"
       style="fill:#ffffff;stroke-width:1.3662" />
    <path
       class="st1"
       d="m 232.75486,100.30233 h -4.23522 c -0.13662,0 -0.27324,-0.13662 -0.27324,-0.27324 v -8.470438 c 0,-0.13662 0.13662,-0.27324 0.27324,-0.27324 h 4.0986 c 0.13662,0 0.27324,0.13662 0.27324,0.27324 v 0.40986 c 0,0.13662 -0.13662,0.27324 -0.27324,0.27324 h -3.27888 v 2.7324 h 3.00564 c 0.13662,0 0.27324,0.13662 0.27324,0.27324 v 0.40986 c 0,0.13662 -0.13662,0.27324 -0.27324,0.27324 h -3.00564 v 3.27888 h 3.4155 c 0.13662,0 0.27324,0.13662 0.27324,0.27324 v 0.546478 c 0.13662,0.27324 0,0.27324 -0.27324,0.27324 z"
       id="path122"
       style="fill:#ffffff;stroke-width:1.3662" />
  </g>
</svg>
